<svg width="38" height="31" viewBox="0 0 38 31" fill="none" xmlns="http://www.w3.org/2000/svg">
<path d="M21.474 31V19.9073C21.474 14.9553 22.8264 10.6305 25.5312 6.93291C28.2361 3.16933 32.3924 0.858357 38 0V7.23003C34.7674 7.6262 32.6233 8.68264 31.5677 10.3994C30.5122 12.1161 29.9844 14.394 29.9844 17.2332L24.1458 16.0447H37.8021V31H21.474ZM0 31V19.9073C0 14.9553 1.35243 10.6305 4.05729 6.93291C6.76215 3.16933 10.9184 0.858357 16.526 0V7.23003C13.2934 7.6262 11.1493 8.68264 10.0937 10.3994C9.03819 12.1161 8.51042 14.394 8.51042 17.2332L2.67187 16.0447H16.3281V31H0Z" fill="url(#paint0_linear_1843_157)"/>
<defs>
<linearGradient id="paint0_linear_1843_157" x1="0" y1="15.5" x2="38" y2="15.5" gradientUnits="userSpaceOnUse">
<stop stop-color="#C19B42"/>
<stop offset="1" stop-color="#A88430"/>
</linearGradient>
</defs>
</svg>
